# MagicaVoxel @ Ephtracy

# group
o 

# material
mtllib bom.mtl
usemtl palette

# normals
vn -1 0 0
vn 1 0 0
vn 0 0 -1
vn 0 0 1
vn 0 -1 0
vn 0 1 0

# texcoords
vt 0.373047 0.5
vt 0.841797 0.5
vt 0.978516 0.5
vt 0.986328 0.5

# verts
v -1.4 -2 -1.4
v -1.4 -2 1.5
v -1.4 0.5 -1.4
v -1.4 0.5 1.5
v -1 0.5 -0.9
v -1 0.5 1.1
v -1 0.6 -0.9
v -1 0.6 1.1
v -0.1 0.6 -0.1
v -0.1 0.6 0.3
v -0.1 1.3 -0.1
v -0.1 1.3 0.3
v -0.1 1.5 -0.1
v -0.1 1.5 0.3
v 0.3 0.6 -0.1
v 0.3 0.6 0.3
v 0.3 1.3 -0.1
v 0.3 1.3 0.3
v 0.3 1.5 -0.1
v 0.3 1.5 0.3
v 1 0.5 -0.9
v 1 0.5 1.1
v 1 0.6 -0.9
v 1 0.6 1.1
v 1.5 -2 -1.4
v 1.5 -2 1.5
v 1.5 0.5 -1.4
v 1.5 0.5 1.5
v -1.4 -2 -1.4
v -1.4 0.5 -1.4
v 1.5 -2 -1.4
v 1.5 0.5 -1.4
v -1 0.5 -0.9
v -1 0.6 -0.9
v 1 0.5 -0.9
v 1 0.6 -0.9
v -0.1 0.6 -0.1
v -0.1 1.3 -0.1
v -0.1 1.5 -0.1
v 0.3 0.6 -0.1
v 0.3 1.3 -0.1
v 0.3 1.5 -0.1
v -0.1 0.6 0.3
v -0.1 1.3 0.3
v -0.1 1.5 0.3
v 0.3 0.6 0.3
v 0.3 1.3 0.3
v 0.3 1.5 0.3
v -1 0.5 1.1
v -1 0.6 1.1
v 1 0.5 1.1
v 1 0.6 1.1
v -1.4 -2 1.5
v -1.4 0.5 1.5
v 1.5 -2 1.5
v 1.5 0.5 1.5
v -1.4 -2 -1.4
v 1.5 -2 -1.4
v -1.4 -2 1.5
v 1.5 -2 1.5
v -1.4 0.5 -1.4
v 1.5 0.5 -1.4
v -1 0.5 -0.9
v 1 0.5 -0.9
v -1 0.5 1.1
v 1 0.5 1.1
v -1.4 0.5 1.5
v 1.5 0.5 1.5
v -1 0.6 -0.9
v 1 0.6 -0.9
v -0.1 0.6 -0.1
v 0.3 0.6 -0.1
v -0.1 0.6 0.3
v 0.3 0.6 0.3
v -1 0.6 1.1
v 1 0.6 1.1
v -0.1 1.5 -0.1
v 0.3 1.5 -0.1
v -0.1 1.5 0.3
v 0.3 1.5 0.3

# faces
f 1/4/1 2/4/1 3/4/1
f 3/4/1 2/4/1 4/4/1
f 5/3/1 6/3/1 7/3/1
f 7/3/1 6/3/1 8/3/1
f 9/1/1 10/1/1 11/1/1
f 11/1/1 10/1/1 12/1/1
f 11/2/1 12/2/1 13/2/1
f 13/2/1 12/2/1 14/2/1
f 17/1/2 16/1/2 15/1/2
f 18/1/2 16/1/2 17/1/2
f 19/2/2 18/2/2 17/2/2
f 20/2/2 18/2/2 19/2/2
f 23/3/2 22/3/2 21/3/2
f 24/3/2 22/3/2 23/3/2
f 27/4/2 26/4/2 25/4/2
f 28/4/2 26/4/2 27/4/2
f 29/4/3 30/4/3 31/4/3
f 31/4/3 30/4/3 32/4/3
f 33/3/3 34/3/3 35/3/3
f 35/3/3 34/3/3 36/3/3
f 37/1/3 38/1/3 40/1/3
f 38/2/3 39/2/3 41/2/3
f 40/1/3 38/1/3 41/1/3
f 41/2/3 39/2/3 42/2/3
f 46/1/4 44/1/4 43/1/4
f 47/2/4 45/2/4 44/2/4
f 47/1/4 44/1/4 46/1/4
f 48/2/4 45/2/4 47/2/4
f 51/3/4 50/3/4 49/3/4
f 52/3/4 50/3/4 51/3/4
f 55/4/4 54/4/4 53/4/4
f 56/4/4 54/4/4 55/4/4
f 57/4/5 58/4/5 59/4/5
f 59/4/5 58/4/5 60/4/5
f 63/4/6 62/4/6 61/4/6
f 64/4/6 62/4/6 63/4/6
f 65/4/6 63/4/6 61/4/6
f 66/4/6 62/4/6 64/4/6
f 67/4/6 65/4/6 61/4/6
f 67/4/6 66/4/6 65/4/6
f 68/4/6 62/4/6 66/4/6
f 68/4/6 66/4/6 67/4/6
f 71/3/6 70/3/6 69/3/6
f 72/3/6 70/3/6 71/3/6
f 73/3/6 71/3/6 69/3/6
f 74/3/6 70/3/6 72/3/6
f 75/3/6 73/3/6 69/3/6
f 75/3/6 74/3/6 73/3/6
f 76/3/6 70/3/6 74/3/6
f 76/3/6 74/3/6 75/3/6
f 79/2/6 78/2/6 77/2/6
f 80/2/6 78/2/6 79/2/6
