# MagicaVoxel @ Ephtracy

# group
o 

# material
mtllib Fire.mtl
usemtl palette

# normals
vn -1 0 0
vn 1 0 0
vn 0 0 1
vn 0 0 -1
vn 0 -1 0
vn 0 1 0

# texcoords
vt 0.0917969 0.5
vt 0.275391 0.5
vt 0.279297 0.5
vt 0.857422 0.5

# verts
v -0.6 0 0.2
v -0.6 0 -0.2
v -0.6 0.7 0.2
v -0.6 0.7 -0.2
v -0.5 0 0.3
v -0.5 0 0.2
v -0.5 0 -0.2
v -0.5 0 -0.3
v -0.5 0.1 0.3
v -0.5 0.1 0.2
v -0.5 0.1 -0.2
v -0.5 0.1 -0.3
v -0.5 0.7 0.2
v -0.5 0.7 -0.2
v -0.5 1 0.3
v -0.5 1 -0.3
v -0.4 0 0.4
v -0.4 0 0.3
v -0.4 0 -0.3
v -0.4 0 -0.4
v -0.4 0.1 0.3
v -0.4 0.1 -0.3
v -0.4 0.4 0.4
v -0.4 0.4 0.3
v -0.4 0.4 -0.3
v -0.4 0.4 -0.4
v -0.4 1 0.1
v -0.4 1 -0.1
v -0.4 1.3 0.1
v -0.4 1.3 -0.1
v -0.3 0 0.5
v -0.3 0 0.4
v -0.3 0 -0.4
v -0.3 0 -0.5
v -0.3 0.1 0.5
v -0.3 0.1 0.4
v -0.3 0.1 -0.4
v -0.3 0.1 -0.5
v -0.3 0.4 0.4
v -0.3 0.4 0.3
v -0.3 0.4 -0.3
v -0.3 0.4 -0.4
v -0.3 1 0.5
v -0.3 1 0.3
v -0.3 1 0.2
v -0.3 1 0.1
v -0.3 1 -0.1
v -0.3 1 -0.2
v -0.3 1 -0.3
v -0.3 1 -0.5
v -0.3 1.3 0.1
v -0.3 1.3 -0.1
v -0.3 1.4 0.2
v -0.3 1.4 -0.2
v -0.2 0 0.6
v -0.2 0 0.5
v -0.2 0 -0.5
v -0.2 0 -0.6
v -0.2 0.1 0.5
v -0.2 0.1 -0.5
v -0.2 0.7 0.6
v -0.2 0.7 0.5
v -0.2 0.7 -0.5
v -0.2 0.7 -0.6
v -0.2 1 0.3
v -0.2 1 0.2
v -0.2 1 -0.2
v -0.2 1 -0.3
v -0.2 1.4 0.3
v -0.2 1.4 0.2
v -0.2 1.4 0.1
v -0.2 1.4 -0.1
v -0.2 1.4 -0.2
v -0.2 1.4 -0.3
v -0.2 1.6 0.1
v -0.2 1.6 0
v -0.2 1.7 0
v -0.2 1.7 -0.1
v -0.2 1.8 0.1
v -0.2 1.8 -0.1
v -0.1 1 0.4
v -0.1 1 0.3
v -0.1 1 -0.3
v -0.1 1 -0.4
v -0.1 1.3 0.4
v -0.1 1.3 0.3
v -0.1 1.3 -0.3
v -0.1 1.3 -0.4
v -0.1 1.4 0.2
v -0.1 1.4 0.1
v -0.1 1.4 -0.1
v -0.1 1.4 -0.2
v -0.1 1.6 0.1
v -0.1 1.7 0.2
v -0.1 1.7 0.1
v -0.1 1.7 -0.1
v -0.1 1.7 -0.2
v -0.1 1.8 0.2
v -0.1 1.8 0.1
v -0.1 1.8 -0.1
v -0.1 1.8 -0.2
v -0.1 1.9 0.1
v -0.1 1.9 0
v -0.1 2 0.1
v -0.1 2 0
v -0.1 2 -0.1
v -0.1 2.1 0.1
v -0.1 2.1 0
v -0.1 2.2 0
v -0.1 2.2 -0.1
v -0.1 2.3 0
v -0.1 2.3 -0.1
v 0 1.9 0.1
v 0 1.9 0
v 0 2 0.1
v 0 2 0
v 0 2.1 0.1
v 0 2.1 0
v 0 2.2 0.1
v 0 2.2 0
v 0 1.9 0
v 0 1.9 -0.1
v 0 2 0.1
v 0 2 0
v 0 2 -0.1
v 0 2.1 0.1
v 0 2.1 0
v 0 2.2 0
v 0 2.2 -0.1
v 0 2.3 0
v 0 2.3 -0.1
v 0.1 1 0.4
v 0.1 1 0.3
v 0.1 1 -0.3
v 0.1 1 -0.4
v 0.1 1.3 0.4
v 0.1 1.3 0.3
v 0.1 1.3 -0.3
v 0.1 1.3 -0.4
v 0.1 1.4 0.2
v 0.1 1.4 0.1
v 0.1 1.4 -0.1
v 0.1 1.4 -0.2
v 0.1 1.6 0.2
v 0.1 1.6 0.1
v 0.1 1.6 -0.1
v 0.1 1.6 -0.2
v 0.1 1.7 0.1
v 0.1 1.8 0.2
v 0.1 1.8 0.1
v 0.1 1.8 -0.1
v 0.1 1.8 -0.2
v 0.1 1.9 0
v 0.1 1.9 -0.1
v 0.1 2 0.1
v 0.1 2 0
v 0.1 2.1 0.1
v 0.1 2.1 0
v 0.1 2.2 0.1
v 0.1 2.2 0
v 0.2 0 0.6
v 0.2 0 0.5
v 0.2 0 -0.5
v 0.2 0 -0.6
v 0.2 0.1 0.5
v 0.2 0.1 -0.5
v 0.2 0.7 0.6
v 0.2 0.7 0.5
v 0.2 0.7 -0.5
v 0.2 0.7 -0.6
v 0.2 1 0.3
v 0.2 1 0.2
v 0.2 1 -0.2
v 0.2 1 -0.3
v 0.2 1.4 0.3
v 0.2 1.4 0.2
v 0.2 1.4 0.1
v 0.2 1.4 -0.1
v 0.2 1.4 -0.2
v 0.2 1.4 -0.3
v 0.2 1.6 0
v 0.2 1.6 -0.1
v 0.2 1.7 0.1
v 0.2 1.7 0
v 0.2 1.8 0.1
v 0.2 1.8 -0.1
v 0.3 0 0.5
v 0.3 0 0.4
v 0.3 0 -0.4
v 0.3 0 -0.5
v 0.3 0.1 0.5
v 0.3 0.1 0.4
v 0.3 0.1 -0.4
v 0.3 0.1 -0.5
v 0.3 0.4 0.4
v 0.3 0.4 0.3
v 0.3 0.4 -0.3
v 0.3 0.4 -0.4
v 0.3 1 0.5
v 0.3 1 0.3
v 0.3 1 0.2
v 0.3 1 0.1
v 0.3 1 -0.1
v 0.3 1 -0.2
v 0.3 1 -0.3
v 0.3 1 -0.5
v 0.3 1.3 0.1
v 0.3 1.3 -0.1
v 0.3 1.4 0.2
v 0.3 1.4 -0.2
v 0.4 0 0.4
v 0.4 0 0.3
v 0.4 0 -0.3
v 0.4 0 -0.4
v 0.4 0.1 0.3
v 0.4 0.1 -0.3
v 0.4 0.4 0.4
v 0.4 0.4 0.3
v 0.4 0.4 -0.3
v 0.4 0.4 -0.4
v 0.4 1 0.1
v 0.4 1 -0.1
v 0.4 1.3 0.1
v 0.4 1.3 -0.1
v 0.5 0 0.3
v 0.5 0 0.2
v 0.5 0 -0.2
v 0.5 0 -0.3
v 0.5 0.1 0.3
v 0.5 0.1 0.2
v 0.5 0.1 -0.2
v 0.5 0.1 -0.3
v 0.5 0.7 0.2
v 0.5 0.7 -0.2
v 0.5 1 0.3
v 0.5 1 -0.3
v 0.6 0 0.2
v 0.6 0 -0.2
v 0.6 0.7 0.2
v 0.6 0.7 -0.2
v -0.2 0 0.6
v -0.2 0.7 0.6
v 0.2 0 0.6
v 0.2 0.7 0.6
v -0.3 0 0.5
v -0.3 0.1 0.5
v -0.3 1 0.5
v -0.2 0 0.5
v -0.2 0.1 0.5
v -0.2 0.7 0.5
v 0.2 0 0.5
v 0.2 0.1 0.5
v 0.2 0.7 0.5
v 0.3 0 0.5
v 0.3 0.1 0.5
v 0.3 1 0.5
v -0.4 0 0.4
v -0.4 0.4 0.4
v -0.3 0 0.4
v -0.3 0.1 0.4
v -0.3 0.4 0.4
v -0.1 1 0.4
v -0.1 1.3 0.4
v 0.1 1 0.4
v 0.1 1.3 0.4
v 0.3 0 0.4
v 0.3 0.1 0.4
v 0.3 0.4 0.4
v 0.4 0 0.4
v 0.4 0.4 0.4
v -0.5 0 0.3
v -0.5 0.1 0.3
v -0.5 1 0.3
v -0.4 0 0.3
v -0.4 0.1 0.3
v -0.4 0.4 0.3
v -0.3 0.4 0.3
v -0.3 1 0.3
v -0.2 1 0.3
v -0.2 1.4 0.3
v -0.1 1 0.3
v -0.1 1.3 0.3
v 0.1 1 0.3
v 0.1 1.3 0.3
v 0.2 1 0.3
v 0.2 1.4 0.3
v 0.3 0.4 0.3
v 0.3 1 0.3
v 0.4 0 0.3
v 0.4 0.1 0.3
v 0.4 0.4 0.3
v 0.5 0 0.3
v 0.5 0.1 0.3
v 0.5 1 0.3
v -0.6 0 0.2
v -0.6 0.7 0.2
v -0.5 0 0.2
v -0.5 0.1 0.2
v -0.5 0.7 0.2
v -0.3 1 0.2
v -0.3 1.4 0.2
v -0.2 1 0.2
v -0.2 1.4 0.2
v -0.1 1.4 0.2
v -0.1 1.7 0.2
v -0.1 1.8 0.2
v 0 1.6 0.2
v 0 1.7 0.2
v 0.1 1.4 0.2
v 0.1 1.6 0.2
v 0.1 1.8 0.2
v 0.2 1 0.2
v 0.2 1.4 0.2
v 0.3 1 0.2
v 0.3 1.4 0.2
v 0.5 0 0.2
v 0.5 0.1 0.2
v 0.5 0.7 0.2
v 0.6 0 0.2
v 0.6 0.7 0.2
v -0.4 1 0.1
v -0.4 1.3 0.1
v -0.3 1 0.1
v -0.3 1.3 0.1
v -0.2 1.4 0.1
v -0.2 1.6 0.1
v -0.2 1.8 0.1
v -0.1 1.4 0.1
v -0.1 1.6 0.1
v -0.1 1.7 0.1
v -0.1 1.8 0.1
v -0.1 1.9 0.1
v -0.1 2 0.1
v -0.1 2.1 0.1
v 0 1.9 0.1
v 0 2 0.1
v 0 2.1 0.1
v 0 2.2 0.1
v 0.1 1.4 0.1
v 0.1 1.6 0.1
v 0.1 1.7 0.1
v 0.1 1.8 0.1
v 0.1 2 0.1
v 0.1 2.1 0.1
v 0.1 2.2 0.1
v 0.2 1.4 0.1
v 0.2 1.7 0.1
v 0.2 1.8 0.1
v 0.3 1 0.1
v 0.3 1.3 0.1
v 0.4 1 0.1
v 0.4 1.3 0.1
v -0.1 1.9 0
v -0.1 2 0
v -0.1 2.2 0
v -0.1 2.3 0
v 0 1.9 0
v 0 2 0
v 0 2.2 0
v 0 2.3 0
v -0.1 2 0
v -0.1 2.1 0
v 0 1.9 0
v 0 2 0
v 0 2.1 0
v 0 2.2 0
v 0.1 1.9 0
v 0.1 2 0
v 0.1 2.1 0
v 0.1 2.2 0
v -0.4 1 -0.1
v -0.4 1.3 -0.1
v -0.3 1 -0.1
v -0.3 1.3 -0.1
v -0.2 1.4 -0.1
v -0.2 1.7 -0.1
v -0.2 1.8 -0.1
v -0.1 1.4 -0.1
v -0.1 1.7 -0.1
v -0.1 1.8 -0.1
v -0.1 2 -0.1
v -0.1 2.2 -0.1
v -0.1 2.3 -0.1
v 0 1.9 -0.1
v 0 2 -0.1
v 0 2.2 -0.1
v 0 2.3 -0.1
v 0.1 1.4 -0.1
v 0.1 1.6 -0.1
v 0.1 1.8 -0.1
v 0.1 1.9 -0.1
v 0.2 1.4 -0.1
v 0.2 1.6 -0.1
v 0.2 1.8 -0.1
v 0.3 1 -0.1
v 0.3 1.3 -0.1
v 0.4 1 -0.1
v 0.4 1.3 -0.1
v -0.6 0 -0.2
v -0.6 0.7 -0.2
v -0.5 0 -0.2
v -0.5 0.1 -0.2
v -0.5 0.7 -0.2
v -0.3 1 -0.2
v -0.3 1.4 -0.2
v -0.2 1 -0.2
v -0.2 1.4 -0.2
v -0.1 1.4 -0.2
v -0.1 1.7 -0.2
v -0.1 1.8 -0.2
v 0 1.6 -0.2
v 0 1.7 -0.2
v 0.1 1.4 -0.2
v 0.1 1.6 -0.2
v 0.1 1.8 -0.2
v 0.2 1 -0.2
v 0.2 1.4 -0.2
v 0.3 1 -0.2
v 0.3 1.4 -0.2
v 0.5 0 -0.2
v 0.5 0.1 -0.2
v 0.5 0.7 -0.2
v 0.6 0 -0.2
v 0.6 0.7 -0.2
v -0.5 0 -0.3
v -0.5 0.1 -0.3
v -0.5 1 -0.3
v -0.4 0 -0.3
v -0.4 0.1 -0.3
v -0.4 0.4 -0.3
v -0.3 0.4 -0.3
v -0.3 1 -0.3
v -0.2 1 -0.3
v -0.2 1.4 -0.3
v -0.1 1 -0.3
v -0.1 1.3 -0.3
v 0.1 1 -0.3
v 0.1 1.3 -0.3
v 0.2 1 -0.3
v 0.2 1.4 -0.3
v 0.3 0.4 -0.3
v 0.3 1 -0.3
v 0.4 0 -0.3
v 0.4 0.1 -0.3
v 0.4 0.4 -0.3
v 0.5 0 -0.3
v 0.5 0.1 -0.3
v 0.5 1 -0.3
v -0.4 0 -0.4
v -0.4 0.4 -0.4
v -0.3 0 -0.4
v -0.3 0.1 -0.4
v -0.3 0.4 -0.4
v -0.1 1 -0.4
v -0.1 1.3 -0.4
v 0.1 1 -0.4
v 0.1 1.3 -0.4
v 0.3 0 -0.4
v 0.3 0.1 -0.4
v 0.3 0.4 -0.4
v 0.4 0 -0.4
v 0.4 0.4 -0.4
v -0.3 0 -0.5
v -0.3 0.1 -0.5
v -0.3 1 -0.5
v -0.2 0 -0.5
v -0.2 0.1 -0.5
v -0.2 0.7 -0.5
v 0.2 0 -0.5
v 0.2 0.1 -0.5
v 0.2 0.7 -0.5
v 0.3 0 -0.5
v 0.3 0.1 -0.5
v 0.3 1 -0.5
v -0.2 0 -0.6
v -0.2 0.7 -0.6
v 0.2 0 -0.6
v 0.2 0.7 -0.6
v -0.2 0 0.6
v 0.2 0 0.6
v -0.3 0 0.5
v -0.2 0 0.5
v 0.2 0 0.5
v 0.3 0 0.5
v -0.4 0 0.4
v -0.3 0 0.4
v 0.3 0 0.4
v 0.4 0 0.4
v -0.5 0 0.3
v -0.4 0 0.3
v 0.4 0 0.3
v 0.5 0 0.3
v -0.6 0 0.2
v -0.5 0 0.2
v 0.5 0 0.2
v 0.6 0 0.2
v -0.6 0 -0.2
v -0.5 0 -0.2
v 0.5 0 -0.2
v 0.6 0 -0.2
v -0.5 0 -0.3
v -0.4 0 -0.3
v 0.4 0 -0.3
v 0.5 0 -0.3
v -0.4 0 -0.4
v -0.3 0 -0.4
v 0.3 0 -0.4
v 0.4 0 -0.4
v -0.3 0 -0.5
v -0.2 0 -0.5
v 0.2 0 -0.5
v 0.3 0 -0.5
v -0.2 0 -0.6
v 0.2 0 -0.6
v -0.1 2 0.1
v 0 2 0.1
v -0.1 2 0
v 0 2 0
v 0 2.1 0.1
v 0.1 2.1 0.1
v 0 2.1 0
v 0.1 2.1 0
v -0.1 2.2 0
v 0 2.2 0
v -0.1 2.2 -0.1
v 0 2.2 -0.1
v -0.4 0.4 0.4
v -0.3 0.4 0.4
v 0.3 0.4 0.4
v 0.4 0.4 0.4
v -0.4 0.4 0.3
v -0.3 0.4 0.3
v 0.3 0.4 0.3
v 0.4 0.4 0.3
v -0.4 0.4 -0.3
v -0.3 0.4 -0.3
v 0.3 0.4 -0.3
v 0.4 0.4 -0.3
v -0.4 0.4 -0.4
v -0.3 0.4 -0.4
v 0.3 0.4 -0.4
v 0.4 0.4 -0.4
v -0.2 0.7 0.6
v 0.2 0.7 0.6
v -0.2 0.7 0.5
v 0.2 0.7 0.5
v -0.6 0.7 0.2
v -0.5 0.7 0.2
v 0.5 0.7 0.2
v 0.6 0.7 0.2
v -0.6 0.7 -0.2
v -0.5 0.7 -0.2
v 0.5 0.7 -0.2
v 0.6 0.7 -0.2
v -0.2 0.7 -0.5
v 0.2 0.7 -0.5
v -0.2 0.7 -0.6
v 0.2 0.7 -0.6
v -0.3 1 0.5
v 0.3 1 0.5
v -0.1 1 0.4
v 0.1 1 0.4
v -0.5 1 0.3
v -0.3 1 0.3
v -0.2 1 0.3
v -0.1 1 0.3
v 0.1 1 0.3
v 0.2 1 0.3
v 0.3 1 0.3
v 0.5 1 0.3
v -0.3 1 0.2
v -0.2 1 0.2
v 0.2 1 0.2
v 0.3 1 0.2
v -0.4 1 0.1
v -0.3 1 0.1
v 0.3 1 0.1
v 0.4 1 0.1
v -0.4 1 -0.1
v -0.3 1 -0.1
v 0.3 1 -0.1
v 0.4 1 -0.1
v -0.3 1 -0.2
v -0.2 1 -0.2
v 0.2 1 -0.2
v 0.3 1 -0.2
v -0.5 1 -0.3
v -0.3 1 -0.3
v -0.2 1 -0.3
v -0.1 1 -0.3
v 0.1 1 -0.3
v 0.2 1 -0.3
v 0.3 1 -0.3
v 0.5 1 -0.3
v -0.1 1 -0.4
v 0.1 1 -0.4
v -0.3 1 -0.5
v 0.3 1 -0.5
v -0.1 1.3 0.4
v 0.1 1.3 0.4
v -0.1 1.3 0.3
v 0.1 1.3 0.3
v -0.4 1.3 0.1
v -0.3 1.3 0.1
v 0.3 1.3 0.1
v 0.4 1.3 0.1
v -0.4 1.3 -0.1
v -0.3 1.3 -0.1
v 0.3 1.3 -0.1
v 0.4 1.3 -0.1
v -0.1 1.3 -0.3
v 0.1 1.3 -0.3
v -0.1 1.3 -0.4
v 0.1 1.3 -0.4
v -0.2 1.4 0.3
v 0.2 1.4 0.3
v -0.3 1.4 0.2
v -0.2 1.4 0.2
v -0.1 1.4 0.2
v 0.1 1.4 0.2
v 0.2 1.4 0.2
v 0.3 1.4 0.2
v -0.2 1.4 0.1
v -0.1 1.4 0.1
v 0.1 1.4 0.1
v 0.2 1.4 0.1
v -0.2 1.4 -0.1
v -0.1 1.4 -0.1
v 0.1 1.4 -0.1
v 0.2 1.4 -0.1
v -0.3 1.4 -0.2
v -0.2 1.4 -0.2
v -0.1 1.4 -0.2
v 0.1 1.4 -0.2
v 0.2 1.4 -0.2
v 0.3 1.4 -0.2
v -0.2 1.4 -0.3
v 0.2 1.4 -0.3
v -0.1 1.8 0.2
v 0.1 1.8 0.2
v -0.2 1.8 0.1
v -0.1 1.8 0.1
v 0.1 1.8 0.1
v 0.2 1.8 0.1
v -0.2 1.8 -0.1
v -0.1 1.8 -0.1
v 0.1 1.8 -0.1
v 0.2 1.8 -0.1
v -0.1 1.8 -0.2
v 0.1 1.8 -0.2
v -0.1 1.9 0.1
v 0 1.9 0.1
v -0.1 1.9 0
v 0 1.9 0
v 0.1 1.9 0
v 0 1.9 -0.1
v 0.1 1.9 -0.1
v 0 2 0.1
v 0.1 2 0.1
v -0.1 2 0
v 0 2 0
v 0.1 2 0
v -0.1 2 -0.1
v 0 2 -0.1
v -0.1 2.1 0.1
v 0 2.1 0.1
v -0.1 2.1 0
v 0 2.1 0
v 0 2.2 0.1
v 0.1 2.2 0.1
v 0 2.2 0
v 0.1 2.2 0
v -0.1 2.3 0
v 0 2.3 0
v -0.1 2.3 -0.1
v 0 2.3 -0.1

# faces
f 3/1/1 2/1/1 1/1/1
f 4/1/1 2/1/1 3/1/1
f 9/1/1 6/1/1 5/1/1
f 10/1/1 6/1/1 9/1/1
f 11/1/1 8/1/1 7/1/1
f 12/1/1 8/1/1 11/1/1
f 13/2/1 10/2/1 9/2/1
f 14/2/1 12/2/1 11/2/1
f 15/2/1 13/2/1 9/2/1
f 15/2/1 14/2/1 13/2/1
f 16/2/1 12/2/1 14/2/1
f 16/2/1 14/2/1 15/2/1
f 21/1/1 18/1/1 17/1/1
f 22/1/1 20/1/1 19/1/1
f 23/1/1 21/1/1 17/1/1
f 24/1/1 21/1/1 23/1/1
f 25/1/1 20/1/1 22/1/1
f 26/1/1 20/1/1 25/1/1
f 29/2/1 28/2/1 27/2/1
f 30/2/1 28/2/1 29/2/1
f 35/1/1 32/1/1 31/1/1
f 36/1/1 32/1/1 35/1/1
f 37/1/1 34/1/1 33/1/1
f 38/1/1 34/1/1 37/1/1
f 39/2/1 36/2/1 35/2/1
f 42/2/1 38/2/1 37/2/1
f 43/2/1 40/2/1 39/2/1
f 43/2/1 39/2/1 35/2/1
f 44/2/1 40/2/1 43/2/1
f 49/2/1 42/2/1 41/2/1
f 50/2/1 38/2/1 42/2/1
f 50/2/1 42/2/1 49/2/1
f 51/2/1 46/2/1 45/2/1
f 52/2/1 48/2/1 47/2/1
f 53/2/1 51/2/1 45/2/1
f 53/2/1 52/2/1 51/2/1
f 54/2/1 48/2/1 52/2/1
f 54/2/1 52/2/1 53/2/1
f 59/1/1 56/1/1 55/1/1
f 60/1/1 58/1/1 57/1/1
f 61/1/1 59/1/1 55/1/1
f 62/1/1 59/1/1 61/1/1
f 63/1/1 58/1/1 60/1/1
f 64/1/1 58/1/1 63/1/1
f 69/2/1 66/2/1 65/2/1
f 70/2/1 66/2/1 69/2/1
f 73/2/1 68/2/1 67/2/1
f 74/2/1 68/2/1 73/2/1
f 75/2/1 72/2/1 71/2/1
f 76/2/1 72/2/1 75/2/1
f 77/4/1 76/4/1 75/4/1
f 77/2/1 72/2/1 76/2/1
f 78/2/1 72/2/1 77/2/1
f 79/4/1 77/4/1 75/4/1
f 79/4/1 78/4/1 77/4/1
f 80/4/1 78/4/1 79/4/1
f 85/2/1 82/2/1 81/2/1
f 86/2/1 82/2/1 85/2/1
f 87/2/1 84/2/1 83/2/1
f 88/2/1 84/2/1 87/2/1
f 93/2/1 90/2/1 89/2/1
f 94/2/1 93/2/1 89/2/1
f 95/2/1 93/2/1 94/2/1
f 96/2/1 92/2/1 91/2/1
f 97/2/1 92/2/1 96/2/1
f 98/4/1 95/4/1 94/4/1
f 99/4/1 95/4/1 98/4/1
f 100/4/1 97/4/1 96/4/1
f 101/4/1 97/4/1 100/4/1
f 102/4/1 100/4/1 99/4/1
f 103/4/1 100/4/1 102/4/1
f 105/4/1 100/4/1 103/4/1
f 106/4/1 100/4/1 105/4/1
f 107/4/1 105/4/1 104/4/1
f 108/4/1 105/4/1 107/4/1
f 111/4/1 110/4/1 109/4/1
f 112/4/1 110/4/1 111/4/1
f 115/4/1 114/4/1 113/4/1
f 116/4/1 114/4/1 115/4/1
f 119/4/1 118/4/1 117/4/1
f 120/4/1 118/4/1 119/4/1
f 121/4/2 122/4/2 124/4/2
f 124/4/2 122/4/2 125/4/2
f 123/4/2 124/4/2 126/4/2
f 126/4/2 124/4/2 127/4/2
f 128/4/2 129/4/2 130/4/2
f 130/4/2 129/4/2 131/4/2
f 132/2/2 133/2/2 136/2/2
f 136/2/2 133/2/2 137/2/2
f 134/2/2 135/2/2 138/2/2
f 138/2/2 135/2/2 139/2/2
f 140/2/2 141/2/2 144/2/2
f 144/2/2 141/2/2 145/2/2
f 142/2/2 143/2/2 146/2/2
f 146/2/2 143/2/2 147/2/2
f 144/4/2 145/4/2 148/4/2
f 144/4/2 148/4/2 149/4/2
f 149/4/2 148/4/2 150/4/2
f 146/4/2 147/4/2 151/4/2
f 151/4/2 147/4/2 152/4/2
f 150/4/2 151/4/2 153/4/2
f 153/4/2 151/4/2 154/4/2
f 150/4/2 153/4/2 155/4/2
f 155/4/2 153/4/2 156/4/2
f 157/4/2 158/4/2 159/4/2
f 159/4/2 158/4/2 160/4/2
f 161/1/2 162/1/2 165/1/2
f 163/1/2 164/1/2 166/1/2
f 161/1/2 165/1/2 167/1/2
f 167/1/2 165/1/2 168/1/2
f 166/1/2 164/1/2 169/1/2
f 169/1/2 164/1/2 170/1/2
f 171/2/2 172/2/2 175/2/2
f 175/2/2 172/2/2 176/2/2
f 173/2/2 174/2/2 179/2/2
f 179/2/2 174/2/2 180/2/2
f 177/2/2 178/2/2 181/2/2
f 181/2/2 178/2/2 182/2/2
f 177/2/2 181/2/2 183/2/2
f 181/4/2 182/4/2 184/4/2
f 183/2/2 181/2/2 184/2/2
f 183/4/2 184/4/2 185/4/2
f 184/4/2 182/4/2 186/4/2
f 185/4/2 184/4/2 186/4/2
f 187/1/2 188/1/2 191/1/2
f 191/1/2 188/1/2 192/1/2
f 189/1/2 190/1/2 193/1/2
f 193/1/2 190/1/2 194/1/2
f 191/2/2 192/2/2 195/2/2
f 193/2/2 194/2/2 198/2/2
f 195/2/2 196/2/2 199/2/2
f 191/2/2 195/2/2 199/2/2
f 199/2/2 196/2/2 200/2/2
f 197/2/2 198/2/2 205/2/2
f 198/2/2 194/2/2 206/2/2
f 205/2/2 198/2/2 206/2/2
f 201/2/2 202/2/2 207/2/2
f 203/2/2 204/2/2 208/2/2
f 201/2/2 207/2/2 209/2/2
f 207/2/2 208/2/2 209/2/2
f 208/2/2 204/2/2 210/2/2
f 209/2/2 208/2/2 210/2/2
f 211/1/2 212/1/2 215/1/2
f 213/1/2 214/1/2 216/1/2
f 211/1/2 215/1/2 217/1/2
f 217/1/2 215/1/2 218/1/2
f 216/1/2 214/1/2 219/1/2
f 219/1/2 214/1/2 220/1/2
f 221/2/2 222/2/2 223/2/2
f 223/2/2 222/2/2 224/2/2
f 225/1/2 226/1/2 229/1/2
f 229/1/2 226/1/2 230/1/2
f 227/1/2 228/1/2 231/1/2
f 231/1/2 228/1/2 232/1/2
f 229/2/2 230/2/2 233/2/2
f 231/2/2 232/2/2 234/2/2
f 229/2/2 233/2/2 235/2/2
f 233/2/2 234/2/2 235/2/2
f 234/2/2 232/2/2 236/2/2
f 235/2/2 234/2/2 236/2/2
f 237/1/2 238/1/2 239/1/2
f 239/1/2 238/1/2 240/1/2
f 243/1/3 242/1/3 241/1/3
f 244/1/3 242/1/3 243/1/3
f 248/1/3 246/1/3 245/1/3
f 249/2/3 247/2/3 246/2/3
f 249/1/3 246/1/3 248/1/3
f 250/2/3 247/2/3 249/2/3
f 253/2/3 247/2/3 250/2/3
f 254/1/3 252/1/3 251/1/3
f 255/2/3 253/2/3 252/2/3
f 255/1/3 252/1/3 254/1/3
f 256/2/3 247/2/3 253/2/3
f 256/2/3 253/2/3 255/2/3
f 259/1/3 258/1/3 257/1/3
f 260/1/3 258/1/3 259/1/3
f 261/1/3 258/1/3 260/1/3
f 264/2/3 263/2/3 262/2/3
f 265/2/3 263/2/3 264/2/3
f 269/1/3 267/1/3 266/1/3
f 269/1/3 268/1/3 267/1/3
f 270/1/3 268/1/3 269/1/3
f 274/1/3 272/1/3 271/1/3
f 275/2/3 273/2/3 272/2/3
f 275/1/3 272/1/3 274/1/3
f 276/2/3 273/2/3 275/2/3
f 277/2/3 273/2/3 276/2/3
f 278/2/3 273/2/3 277/2/3
f 281/2/3 280/2/3 279/2/3
f 282/2/3 280/2/3 281/2/3
f 284/2/3 280/2/3 282/2/3
f 285/2/3 284/2/3 283/2/3
f 286/2/3 280/2/3 284/2/3
f 286/2/3 284/2/3 285/2/3
f 291/2/3 288/2/3 287/2/3
f 292/1/3 290/1/3 289/1/3
f 293/2/3 291/2/3 290/2/3
f 293/1/3 290/1/3 292/1/3
f 294/2/3 288/2/3 291/2/3
f 294/2/3 291/2/3 293/2/3
f 297/1/3 296/1/3 295/1/3
f 298/1/3 296/1/3 297/1/3
f 299/1/3 296/1/3 298/1/3
f 302/2/3 301/2/3 300/2/3
f 303/2/3 301/2/3 302/2/3
f 307/2/3 305/2/3 304/2/3
f 308/4/3 306/4/3 305/4/3
f 308/2/3 305/2/3 307/2/3
f 309/2/3 307/2/3 304/2/3
f 310/4/3 308/4/3 307/4/3
f 310/2/3 307/2/3 309/2/3
f 311/4/3 306/4/3 308/4/3
f 311/4/3 308/4/3 310/4/3
f 314/2/3 313/2/3 312/2/3
f 315/2/3 313/2/3 314/2/3
f 319/1/3 317/1/3 316/1/3
f 319/1/3 318/1/3 317/1/3
f 320/1/3 318/1/3 319/1/3
f 323/2/3 322/2/3 321/2/3
f 324/2/3 322/2/3 323/2/3
f 328/2/3 326/2/3 325/2/3
f 329/4/3 327/4/3 326/4/3
f 329/2/3 326/2/3 328/2/3
f 330/4/3 327/4/3 329/4/3
f 331/4/3 327/4/3 330/4/3
f 335/4/3 332/4/3 331/4/3
f 336/4/3 334/4/3 333/4/3
f 337/4/3 334/4/3 336/4/3
f 342/4/3 335/4/3 331/4/3
f 342/4/3 336/4/3 335/4/3
f 343/4/3 336/4/3 342/4/3
f 344/4/3 338/4/3 337/4/3
f 345/4/3 338/4/3 344/4/3
f 346/2/3 341/2/3 340/2/3
f 346/2/3 340/2/3 339/2/3
f 347/4/3 342/4/3 341/4/3
f 347/2/3 341/2/3 346/2/3
f 348/4/3 342/4/3 347/4/3
f 351/2/3 350/2/3 349/2/3
f 352/2/3 350/2/3 351/2/3
f 357/4/3 354/4/3 353/4/3
f 358/4/3 354/4/3 357/4/3
f 359/4/3 356/4/3 355/4/3
f 360/4/3 356/4/3 359/4/3
f 361/4/4 362/4/4 364/4/4
f 364/4/4 362/4/4 365/4/4
f 363/4/4 364/4/4 367/4/4
f 367/4/4 364/4/4 368/4/4
f 365/4/4 366/4/4 369/4/4
f 369/4/4 366/4/4 370/4/4
f 371/2/4 372/2/4 373/2/4
f 373/2/4 372/2/4 374/2/4
f 375/2/4 376/2/4 378/2/4
f 376/4/4 377/4/4 379/4/4
f 378/2/4 376/2/4 379/2/4
f 379/4/4 377/4/4 380/4/4
f 380/4/4 381/4/4 384/4/4
f 384/4/4 381/4/4 385/4/4
f 382/4/4 383/4/4 386/4/4
f 386/4/4 383/4/4 387/4/4
f 380/4/4 384/4/4 390/4/4
f 390/4/4 384/4/4 391/4/4
f 388/2/4 389/2/4 392/2/4
f 389/4/4 390/4/4 393/4/4
f 392/2/4 389/2/4 393/2/4
f 393/4/4 390/4/4 394/4/4
f 395/2/4 396/2/4 397/2/4
f 397/2/4 396/2/4 398/2/4
f 399/1/4 400/1/4 401/1/4
f 401/1/4 400/1/4 402/1/4
f 402/1/4 400/1/4 403/1/4
f 404/2/4 405/2/4 406/2/4
f 406/2/4 405/2/4 407/2/4
f 408/2/4 409/2/4 411/2/4
f 409/4/4 410/4/4 412/4/4
f 411/2/4 409/2/4 412/2/4
f 408/2/4 411/2/4 413/2/4
f 411/4/4 412/4/4 414/4/4
f 413/2/4 411/2/4 414/2/4
f 412/4/4 410/4/4 415/4/4
f 414/4/4 412/4/4 415/4/4
f 416/2/4 417/2/4 418/2/4
f 418/2/4 417/2/4 419/2/4
f 420/1/4 421/1/4 423/1/4
f 421/1/4 422/1/4 423/1/4
f 423/1/4 422/1/4 424/1/4
f 425/1/4 426/1/4 428/1/4
f 426/2/4 427/2/4 429/2/4
f 428/1/4 426/1/4 429/1/4
f 429/2/4 427/2/4 430/2/4
f 430/2/4 427/2/4 431/2/4
f 431/2/4 427/2/4 432/2/4
f 433/2/4 434/2/4 435/2/4
f 435/2/4 434/2/4 436/2/4
f 436/2/4 434/2/4 438/2/4
f 437/2/4 438/2/4 439/2/4
f 438/2/4 434/2/4 440/2/4
f 439/2/4 438/2/4 440/2/4
f 441/2/4 442/2/4 445/2/4
f 443/1/4 444/1/4 446/1/4
f 444/2/4 445/2/4 447/2/4
f 446/1/4 444/1/4 447/1/4
f 445/2/4 442/2/4 448/2/4
f 447/2/4 445/2/4 448/2/4
f 449/1/4 450/1/4 451/1/4
f 451/1/4 450/1/4 452/1/4
f 452/1/4 450/1/4 453/1/4
f 454/2/4 455/2/4 456/2/4
f 456/2/4 455/2/4 457/2/4
f 458/1/4 459/1/4 461/1/4
f 459/1/4 460/1/4 461/1/4
f 461/1/4 460/1/4 462/1/4
f 463/1/4 464/1/4 466/1/4
f 464/2/4 465/2/4 467/2/4
f 466/1/4 464/1/4 467/1/4
f 467/2/4 465/2/4 468/2/4
f 468/2/4 465/2/4 471/2/4
f 469/1/4 470/1/4 472/1/4
f 470/2/4 471/2/4 473/2/4
f 472/1/4 470/1/4 473/1/4
f 471/2/4 465/2/4 474/2/4
f 473/2/4 471/2/4 474/2/4
f 475/1/4 476/1/4 477/1/4
f 477/1/4 476/1/4 478/1/4
f 482/1/5 480/1/5 479/1/5
f 483/1/5 480/1/5 482/1/5
f 486/1/5 482/1/5 481/1/5
f 486/1/5 484/1/5 483/1/5
f 486/1/5 483/1/5 482/1/5
f 487/1/5 484/1/5 486/1/5
f 490/1/5 486/1/5 485/1/5
f 490/1/5 488/1/5 487/1/5
f 490/1/5 487/1/5 486/1/5
f 491/1/5 488/1/5 490/1/5
f 494/1/5 490/1/5 489/1/5
f 494/1/5 492/1/5 491/1/5
f 494/1/5 491/1/5 490/1/5
f 495/1/5 492/1/5 494/1/5
f 497/1/5 494/1/5 493/1/5
f 497/1/5 496/1/5 495/1/5
f 497/1/5 495/1/5 494/1/5
f 498/1/5 496/1/5 497/1/5
f 499/1/5 496/1/5 498/1/5
f 500/1/5 496/1/5 499/1/5
f 501/1/5 499/1/5 498/1/5
f 502/1/5 499/1/5 501/1/5
f 503/1/5 499/1/5 502/1/5
f 504/1/5 499/1/5 503/1/5
f 505/1/5 503/1/5 502/1/5
f 506/1/5 503/1/5 505/1/5
f 507/1/5 503/1/5 506/1/5
f 508/1/5 503/1/5 507/1/5
f 509/1/5 507/1/5 506/1/5
f 510/1/5 507/1/5 509/1/5
f 511/1/5 507/1/5 510/1/5
f 512/1/5 507/1/5 511/1/5
f 513/1/5 511/1/5 510/1/5
f 514/1/5 511/1/5 513/1/5
f 517/4/5 516/4/5 515/4/5
f 518/4/5 516/4/5 517/4/5
f 521/4/5 520/4/5 519/4/5
f 522/4/5 520/4/5 521/4/5
f 525/4/5 524/4/5 523/4/5
f 526/4/5 524/4/5 525/4/5
f 527/1/6 528/1/6 531/1/6
f 531/1/6 528/1/6 532/1/6
f 529/1/6 530/1/6 533/1/6
f 533/1/6 530/1/6 534/1/6
f 535/1/6 536/1/6 539/1/6
f 539/1/6 536/1/6 540/1/6
f 537/1/6 538/1/6 541/1/6
f 541/1/6 538/1/6 542/1/6
f 543/1/6 544/1/6 545/1/6
f 545/1/6 544/1/6 546/1/6
f 547/1/6 548/1/6 551/1/6
f 551/1/6 548/1/6 552/1/6
f 549/1/6 550/1/6 553/1/6
f 553/1/6 550/1/6 554/1/6
f 555/1/6 556/1/6 557/1/6
f 557/1/6 556/1/6 558/1/6
f 559/2/6 560/2/6 561/2/6
f 561/2/6 560/2/6 562/2/6
f 559/2/6 561/2/6 564/2/6
f 564/2/6 561/2/6 565/2/6
f 565/2/6 561/2/6 566/2/6
f 562/2/6 560/2/6 567/2/6
f 567/2/6 560/2/6 568/2/6
f 568/2/6 560/2/6 569/2/6
f 563/2/6 564/2/6 571/2/6
f 564/2/6 565/2/6 571/2/6
f 571/2/6 565/2/6 572/2/6
f 569/2/6 570/2/6 573/2/6
f 568/2/6 569/2/6 573/2/6
f 573/2/6 570/2/6 574/2/6
f 563/2/6 571/2/6 575/2/6
f 575/2/6 571/2/6 576/2/6
f 574/2/6 570/2/6 577/2/6
f 577/2/6 570/2/6 578/2/6
f 563/2/6 575/2/6 579/2/6
f 578/2/6 570/2/6 582/2/6
f 579/2/6 580/2/6 583/2/6
f 581/2/6 582/2/6 586/2/6
f 583/2/6 584/2/6 587/2/6
f 563/2/6 579/2/6 587/2/6
f 579/2/6 583/2/6 587/2/6
f 587/2/6 584/2/6 588/2/6
f 588/2/6 584/2/6 589/2/6
f 585/2/6 586/2/6 592/2/6
f 586/2/6 582/2/6 593/2/6
f 592/2/6 586/2/6 593/2/6
f 582/2/6 570/2/6 594/2/6
f 593/2/6 582/2/6 594/2/6
f 589/2/6 590/2/6 595/2/6
f 588/2/6 589/2/6 595/2/6
f 591/2/6 592/2/6 596/2/6
f 592/2/6 593/2/6 596/2/6
f 588/2/6 595/2/6 597/2/6
f 595/2/6 596/2/6 597/2/6
f 596/2/6 593/2/6 598/2/6
f 597/2/6 596/2/6 598/2/6
f 599/2/6 600/2/6 601/2/6
f 601/2/6 600/2/6 602/2/6
f 603/2/6 604/2/6 607/2/6
f 607/2/6 604/2/6 608/2/6
f 605/2/6 606/2/6 609/2/6
f 609/2/6 606/2/6 610/2/6
f 611/2/6 612/2/6 613/2/6
f 613/2/6 612/2/6 614/2/6
f 615/2/6 616/2/6 618/2/6
f 618/2/6 616/2/6 619/2/6
f 619/2/6 616/2/6 620/2/6
f 620/2/6 616/2/6 621/2/6
f 617/2/6 618/2/6 623/2/6
f 618/2/6 619/2/6 623/2/6
f 623/2/6 619/2/6 624/2/6
f 621/2/6 622/2/6 625/2/6
f 620/2/6 621/2/6 625/2/6
f 625/2/6 622/2/6 626/2/6
f 617/2/6 623/2/6 627/2/6
f 626/2/6 622/2/6 630/2/6
f 627/2/6 628/2/6 631/2/6
f 617/2/6 627/2/6 631/2/6
f 631/2/6 628/2/6 632/2/6
f 632/2/6 628/2/6 633/2/6
f 629/2/6 630/2/6 634/2/6
f 630/2/6 622/2/6 635/2/6
f 634/2/6 630/2/6 635/2/6
f 635/2/6 622/2/6 636/2/6
f 632/2/6 633/2/6 637/2/6
f 633/2/6 634/2/6 637/2/6
f 634/2/6 635/2/6 637/2/6
f 637/2/6 635/2/6 638/2/6
f 639/4/6 640/4/6 642/4/6
f 642/4/6 640/4/6 643/4/6
f 641/4/6 642/4/6 645/4/6
f 645/4/6 642/4/6 646/4/6
f 643/4/6 644/4/6 647/4/6
f 647/4/6 644/4/6 648/4/6
f 646/4/6 647/4/6 649/4/6
f 649/4/6 647/4/6 650/4/6
f 651/4/6 652/4/6 653/4/6
f 653/4/6 652/4/6 654/4/6
f 654/4/6 655/4/6 656/4/6
f 656/4/6 655/4/6 657/4/6
f 658/4/6 659/4/6 661/4/6
f 661/4/6 659/4/6 662/4/6
f 660/4/6 661/4/6 663/4/6
f 663/4/6 661/4/6 664/4/6
f 665/4/6 666/4/6 667/4/6
f 667/4/6 666/4/6 668/4/6
f 669/4/6 670/4/6 671/4/6
f 671/4/6 670/4/6 672/4/6
f 673/4/6 674/4/6 675/4/6
f 675/4/6 674/4/6 676/4/6
